<?xml version="1.0" encoding="UTF-8" standalone="no"?>
<!DOCTYPE svg  PUBLIC '-//W3C//DTD SVG 1.1//EN'  'http://www.w3.org/Graphics/SVG/1.1/DTD/svg11.dtd'>
<!-- Creator: CorelDRAW X7 -->
<svg style="shape-rendering:geometricPrecision;text-rendering:geometricPrecision;image-rendering:optimizeQuality" xmlns="http://www.w3.org/2000/svg" fill-rule="evenodd" xml:space="preserve" height="424px" width="300px" version="1.1" clip-rule="evenodd" xmlns:xlink="http://www.w3.org/1999/xlink" viewBox="0 0 300 424">
 <defs>
  <style type="text/css">
   <![CDATA[
    .fil0 {fill:#FF6898}
   ]]>
  </style>
 </defs>
 <g id="Слой_x0020_1">
  <path class="fil0" d="m241 126l-3-6c-1-2-1-4-1-7 0-4 0-9-3-13-2-3-6-5-10-7-3-1-5-2-6-3-2-1-3-3-4-6-2-3-5-7-9-9-3-2-6-2-10-2h-2-2c-2 0-4 0-5-1-2 0-4-2-6-4-3-2-6-5-11-6h-2c-4 0-7 1-10 3-3 0-5 1-7 1s-4-1-7-1c-3-2-6-3-10-3h-2c-5 1-8 4-11 6-2 2-4 4-6 4-1 1-3 1-5 1h-2-2c-4 0-7 0-10 2-4 2-7 6-9 9-1 3-2 5-4 6-1 1-3 2-6 3-4 2-8 4-10 7-3 4-3 9-3 13 0 3 0 5-1 7l-3 6c-3 3-6 7-6 12s3 9 6 13c1 2 2 4 3 5 1 2 1 4 1 7 0 4 0 9 3 13 2 3 6 5 9 7 1 11 7 44 32 79-1 0-3 0-4 2-5 4-7 13-7 29 0 15 2 25 7 28 1 2 3 2 4 2h1c4 0 8-1 12-2-4 7-9 16-13 26 0 2 0 4 2 5l12 9c1 1 2 1 2 1h2c1 0 2-1 3-2 0-1 1-3 2-6 4 4 10 8 20 8s16-4 20-8c1 3 2 5 2 6 1 1 2 2 3 2h2s1 0 2-1l12-9c2-1 2-3 2-5-4-10-9-19-13-26 4 1 8 2 12 2h1c1 0 3 0 4-2 5-3 7-13 7-28 0-16-2-25-7-29-1-2-3-2-4-2 24-34 30-66 32-79 3-2 7-4 9-7 3-4 3-9 3-13 0-3 0-5 1-7 1-1 2-3 3-5 3-4 6-8 6-13s-3-9-6-12zm-21-25c3 2 6 3 7 4 1 2 1 5 2 9v1c-4-2-9-3-14-3-1 1-3 1-4 1 1-1 2-3 2-4 2-3 2-7 2-10 2 1 4 2 5 2zm-64 178h-3-6-3c-5-5-13-12-24-15-24-30-32-59-35-74 0 0 1 1 1 2 2 3 5 7 9 10 3 1 6 2 10 2h2 2 5c2 1 4 2 6 4 3 3 6 5 11 6h2c4 0 7-1 10-2s5-2 7-2 4 1 7 2 6 2 10 2h2c5-1 8-4 11-6 2-2 4-3 6-4h5 2 2c4 0 7-1 10-2 4-3 7-7 9-10 0-1 1-2 1-2-3 15-11 44-35 74-11 3-19 10-24 15zm2 14c0 2-2 5-5 5h-6c-3 0-5-3-5-5 0-3 2-5 5-5h6c3 0 5 2 5 5zm-17-209c-5-5-14-5-20 1-1 2-1 5 1 6 1 2 4 2 6 0s5-2 8 0c3 3 3 8 0 11-4 4-11 4-15 0-3-2-5-6-5-10s1-7 4-10c7-8 19-9 27-2 6 5 12 17 11 29 0 0-1 0-2-1-5-1-10-1-14 0 7-7 6-18-1-24zm45 65c-5-1-10 0-14 1 2-3 4-6 5-10v-4c2 1 4 2 7 3 0 3 0 7 2 10zm19 40c-1 2-3 4-4 5s-4 1-6 1h-2-2-3c3-3 6-7 7-11 1-5 0-9-2-13-3-3-6-6-11-7-7-2-15 3-17 11 0 2 1 5 4 5 2 1 5-1 5-3 1-3 4-5 6-4 2 0 4 1 5 3s2 4 1 6c-1 6-7 10-13 8-7-1-12-9-11-17 1-5 4-10 9-12 4-3 9-4 14-3 14 3 23 17 20 31zm-61-3c-6-5-14-4-18 2-1 2-1 5 1 6 2 2 5 1 6-1 1-1 4-2 5 0 3 1 3 5 2 8-3 3-8 4-12 1-5-4-6-11-2-16 2-3 6-5 10-6 4 0 8 1 11 3 5 3 8 8 8 19-1 0-3-1-5-1h-1c2-5 0-12-5-15zm20 19v-10c2 2 5 3 8 4h4 1l-2 2c-3 2-5 4-7 4h-1-3zm-10-88c10 2 16 12 14 22-1 7-9 12-16 10-3 0-5-2-6-4-2-2-2-5-2-8 0-2 2-3 3-4 2-1 4-2 6-1 2 0 4-1 5-4 0-2-1-4-4-5-4-1-8 0-12 2-3 3-6 6-7 10-1 5 0 10 3 15 3 4 7 7 12 8 4 1 7 0 11 0-4 3-6 8-7 13-1 0-1 1-1 2-9-3-18-8-23-16-4-7-6-14-4-22 2-12 15-21 28-18zm-22 55c-1 0-2 0-3 1v-4l3 3zm-16-30c0 2 1 5 1 7-2-2-4-3-7-4l6-3zm-17 10c5 0 10 1 14 5 5 5 8 14 8 22-1 0-2 1-2 2-4 4-5 9-4 14h-6-2-2c-2 0-5 0-6-1-2-1-3-3-4-5 5 0 10-2 13-6 3-3 5-7 5-12-1-4-3-8-6-11-2-2-6-4-10-3-3 0-7 1-9 4-2 2-2 5 0 6 2 2 5 2 6 0 2-2 5-2 7 0 2 1 3 3 3 5s-1 4-2 5c-4 4-11 5-15 1-3-3-4-6-4-10s1-7 3-10c4-4 8-6 13-6zm91-28c-2 2-3 4-4 6-6-3-11-8-13-14-4-7-4-14-1-20 2-5 6-9 11-10 5-2 10-2 15 0 3 2 6 5 7 8 2 4 2 8 0 11-1 3-3 5-6 6s-6 1-8 0-4-2-4-4c-1-2-1-5 0-6 1-3 4-4 7-3 2 1 5 0 6-2 1-3 0-5-2-6-4-2-8-2-11 0-4 1-7 3-8 7-2 4-2 9-1 13 2 4 5 7 9 9 2 1 4 1 6 2l-3 3zm-30-51c3-1 5-2 7-2h1c2 0 4 2 7 4l3 3c-6 3-11 7-14 13-2-6-6-12-10-16 2-1 4-2 6-2zm-61 9c1 0 4-1 6-1 0 0 1 1 2 1h2c-1 3-2 7-2 11 0 6 3 12 8 16 4 4 9 5 15 5-6 4-10 9-12 16h-1c-10 10-29 11-39 1-3-4-5-9-5-14s2-10 5-14c6-5 15-5 21 0 4 5 4 12 0 16-3 3-8 3-11 0-2-2-2-6 0-8 2-1 2-4 0-6s-4-2-6 0c-6 6-6 15 0 20 6 7 17 7 23 0 8-8 8-20 0-28-3-3-8-5-12-6 0-1 1-1 1-2 2-3 3-6 5-7zm-26 89c-1-2-1-5-2-8 0-3 0-6-1-9s-2-6-4-8c-2-3-4-6-4-8s2-5 4-7c0-1 0-1 1-1 1 2 3 5 5 7 4 4 10 7 16 9-3 1-6 3-8 6-4 4-6 10-6 16v4l-1-1zm31 122c0-17 3-21 4-22 13 0 22 7 28 13-2 2-3 5-3 9 0 3 1 6 3 8 0 0-1 1-1 2-6 5-15 11-27 11-1-1-4-5-4-21zm18 58l-5-4c8-22 20-34 24-38 0-1 1-1 1-2 1 0 1-1 2-1h1c-9 14-19 35-23 45zm43-7c-1 2-4 9-15 9s-15-7-15-9c4-9 10-20 15-29 5 9 11 20 15 29zm18 3l-5 4c-4-10-14-31-23-45h1l3 3c4 4 16 16 24 38zm13-54c0 16-3 20-4 21-12 0-21-6-27-11 0-1-1-2-1-2 2-2 3-5 3-8 0-4-1-7-3-9 6-6 15-13 28-13 1 1 4 5 4 22zm38-147c-2 2-3 5-4 8s-1 6-1 9c-1 3-1 6-2 8s-4 3-7 4l-6 3c-1-4-3-9-5-13-1-1-2-2-2-3 4-1 9-3 12-6 3-4 5-8 4-12 0-5-2-9-5-12-6-5-15-5-20 1-2 2-1 5 0 6 2 2 5 2 7 0 1-1 2-2 3-2 2 0 3 1 4 2 2 1 3 3 3 5s-1 4-2 6c-4 4-11 4-16 0-6-5-6-14-1-20 5-5 12-8 20-9 4 0 10 1 15 5 1 2 2 3 3 5 2 2 4 5 4 7s-2 5-4 8z"/>
 </g>
</svg>
