<?xml version="1.0" encoding="iso-8859-1"?>
<!-- Generator: Adobe Illustrator 19.0.0, SVG Export Plug-In . SVG Version: 6.00 Build 0)  -->
<svg version="1.1" id="Capa_1" xmlns="http://www.w3.org/2000/svg" xmlns:xlink="http://www.w3.org/1999/xlink" x="0px" y="0px"
	 viewBox="0 0 512 512" style="enable-background:new 0 0 512 512;" xml:space="preserve">
<path style="fill:#303C42;" d="M330.667,256h-32v-68.958l27.25-18.167c4.906-3.271,6.229-9.885,2.958-14.792
	c-3.26-4.917-9.875-6.219-14.792-2.958l-18.685,12.457c-7.02-19.716-25.194-33.993-46.974-35.27l-4.32-31.802
	c-1.259-7.539-4.663-14.185-9.438-19.523V63.365c0-23.177,18.865-42.031,42.042-42.031c5.896,0,10.667-4.771,10.667-10.667
	S282.594,0,276.698,0c-34.938,0-63.365,28.427-63.365,63.365v1.424c-2.469-0.487-5-0.789-7.604-0.789h-27.458
	c-2.604,0-5.135,0.302-7.604,0.79v-1.426C170.667,28.427,142.24,0,107.292,0c-5.896,0-10.667,4.771-10.667,10.667
	s4.781,10.667,10.677,10.667c23.177,0,42.031,18.854,42.031,42.031v13.681c-4.788,5.385-8.21,12.107-9.49,19.777l-4.27,31.49
	c-21.779,1.276-39.953,15.555-46.973,35.27l-18.685-12.457c-4.927-3.26-11.542-1.958-14.792,2.958
	c-3.271,4.906-1.948,11.521,2.958,14.792l27.25,18.167V256h-32c-5.896,0-10.667,4.771-10.667,10.667
	c0,5.896,4.771,10.667,10.667,10.667h32v64c0,1.591,0.401,3.072,0.47,4.646l-27.72,18.479c-4.906,3.271-6.229,9.885-2.958,14.792
	c2.052,3.083,5.438,4.75,8.885,4.75c2.031,0,4.083-0.583,5.906-1.792l19.566-13.044C101.816,414.435,142.876,448,192,448
	c22.344,0,43.854-7.021,62.958-20.917l40.063-35.052c2.323-2.031,3.646-4.958,3.646-8.031V277.333h32
	c5.896,0,10.667-4.771,10.667-10.667C341.333,260.771,336.563,256,330.667,256z"/>
<path style="fill:#BF6A1E;" d="M205.729,85.333c8.625,0,15.917,6.177,17.281,14.365L226.848,128h-69.699l3.789-27.99
	c1.417-8.5,8.708-14.677,17.333-14.677H205.729z"/>
<path style="opacity:0.2;fill:#FFFFFF;enable-background:new    ;" d="M183.594,85.333h-5.323c-8.625,0-15.917,6.177-17.333,14.677
	L157.148,128h13.514l2.32-27.99C173.85,91.51,178.314,85.333,183.594,85.333z"/>
<path style="opacity:0.1;enable-background:new    ;" d="M223.01,99.698c-1.365-8.188-8.656-14.365-17.281-14.365h-5.324
	c5.28,0,9.743,6.177,10.579,14.365L213.333,128h13.514L223.01,99.698z"/>
<path style="fill:#BF6A1E;" d="M106.667,341.333v-160c0-17.646,14.354-32,32-32h42.667v276.255
	C139.354,420.271,106.667,384.733,106.667,341.333z"/>
<path style="opacity:0.2;fill:#FFFFFF;enable-background:new    ;" d="M128,341.333v-160c0-17.646,14.354-32,32-32h-21.333
	c-17.646,0-32,14.354-32,32v160c0,43.4,32.688,78.938,74.667,84.255v-5.922C150.202,407.013,128,376.974,128,341.333z"/>
<path style="fill:#BF6A1E;" d="M277.333,379.167l-35.656,31.25c-11.716,8.482-25.052,13.615-39.01,15.406v-276.49h42.667
	c17.646,0,32,14.354,32,32V379.167z"/>
<path style="opacity:0.1;enable-background:new    ;" d="M245.333,149.333H224c17.646,0,32,14.354,32,32v160
	c0,35.641-22.202,65.68-53.333,78.333v5.922c15.189-1.924,29.086-7.905,40.733-16.682l6.473-5.672
	c16.737-15.475,27.461-37.307,27.461-61.901v-160C277.333,163.688,262.979,149.333,245.333,149.333z"/>
<circle style="fill:#303C42;" cx="352" cy="394.667" r="117.333"/>
<circle style="fill:#FFCA28;" cx="352" cy="394.667" r="96"/>
<path style="opacity:0.2;fill:#FFFFFF;enable-background:new    ;" d="M266.667,405.333c0-52.938,43.063-96,96-96
	c23.749,0,45.23,8.99,62.008,23.326c-17.621-20.621-43.486-33.992-72.674-33.992c-52.938,0-96,43.063-96,96
	c0,29.189,13.371,55.053,33.992,72.674C275.656,450.564,266.667,429.082,266.667,405.333z"/>
<g>
	<path style="fill:#303C42;" d="M352,320c-5.896,0-10.667,4.771-10.667,10.667V416c0,5.896,4.771,10.667,10.667,10.667
		c5.896,0,10.667-4.771,10.667-10.667v-85.333C362.667,324.771,357.896,320,352,320z"/>
	<circle style="fill:#303C42;" cx="352" cy="458.667" r="10.667"/>
</g>
<linearGradient id="SVGID_1_" gradientUnits="userSpaceOnUse" x1="-44.9818" y1="640.074" x2="-23.2276" y2="629.9299" gradientTransform="matrix(21.3333 0 0 -21.3333 996.3334 13791.667)">
	<stop  offset="0" style="stop-color:#FFFFFF;stop-opacity:0.2"/>
	<stop  offset="1" style="stop-color:#FFFFFF;stop-opacity:0"/>
</linearGradient>
<path style="fill:url(#SVGID_1_);" d="M352,277.333c-19.212,0-37.31,4.733-53.333,12.953v-12.953h32
	c5.896,0,10.667-4.771,10.667-10.667c0-5.896-4.771-10.667-10.667-10.667h-32v-68.958l27.25-18.167
	c4.906-3.271,6.229-9.885,2.958-14.792c-3.26-4.917-9.875-6.219-14.792-2.958l-18.685,12.457
	c-7.02-19.716-25.194-33.993-46.974-35.27l-4.32-31.802c-1.259-7.539-4.663-14.185-9.438-19.523V63.365
	c0-23.177,18.865-42.031,42.042-42.031c5.896,0,10.667-4.771,10.667-10.667S282.594,0,276.698,0
	c-34.938,0-63.365,28.427-63.365,63.365v1.424c-2.469-0.487-5-0.789-7.604-0.789h-27.458c-2.604,0-5.135,0.302-7.604,0.79v-1.426
	C170.667,28.427,142.24,0,107.292,0c-5.896,0-10.667,4.771-10.667,10.667s4.781,10.667,10.677,10.667
	c23.177,0,42.031,18.854,42.031,42.031v13.681c-4.788,5.385-8.21,12.107-9.49,19.777l-4.27,31.49
	c-21.779,1.276-39.953,15.555-46.973,35.27l-18.685-12.457c-4.927-3.26-11.542-1.958-14.792,2.958
	c-3.271,4.906-1.948,11.521,2.958,14.792l27.25,18.167V256h-32c-5.896,0-10.667,4.771-10.667,10.667
	c0,5.896,4.771,10.667,10.667,10.667h32v64c0,1.591,0.401,3.072,0.47,4.646l-27.72,18.479c-4.906,3.271-6.229,9.885-2.958,14.792
	c2.052,3.083,5.438,4.75,8.885,4.75c2.031,0,4.083-0.583,5.906-1.792l19.566-13.044C101.816,414.435,142.876,448,192,448
	c17.438,0,34.324-4.414,49.999-12.897C258.526,479.905,301.529,512,352,512c64.698,0,117.333-52.635,117.333-117.333
	S416.698,277.333,352,277.333z"/>
<g>
</g>
<g>
</g>
<g>
</g>
<g>
</g>
<g>
</g>
<g>
</g>
<g>
</g>
<g>
</g>
<g>
</g>
<g>
</g>
<g>
</g>
<g>
</g>
<g>
</g>
<g>
</g>
<g>
</g>
</svg>
