<?xml version="1.0" encoding="iso-8859-1"?>
<!-- Generator: Adobe Illustrator 19.0.0, SVG Export Plug-In . SVG Version: 6.00 Build 0)  -->
<svg version="1.1" id="Capa_1" xmlns="http://www.w3.org/2000/svg" xmlns:xlink="http://www.w3.org/1999/xlink" x="0px" y="0px"
	 viewBox="0 0 512 512" style="enable-background:new 0 0 512 512;" xml:space="preserve">
<circle style="fill:#F5D7B7;" cx="82.36" cy="206.15" r="30.581"/>
<circle style="opacity:0.15;enable-background:new    ;" cx="82.36" cy="206.15" r="30.581"/>
<circle style="fill:#F5D7B7;" cx="429.64" cy="206.15" r="30.581"/>
<circle style="opacity:0.15;enable-background:new    ;" cx="429.64" cy="206.15" r="30.581"/>
<path style="fill:#7FDBD5;" d="M392.878,504.5c7.197,0,12.934-6.141,12.303-13.309C398.446,414.713,334.227,354.736,256,354.736
	s-142.446,59.977-149.181,136.455c-0.631,7.169,5.106,13.309,12.303,13.309L392.878,504.5L392.878,504.5z"/>
<path style="opacity:0.1;enable-background:new    ;" d="M350.046,463.185h-32.254c-4.143,0-7.5-3.358-7.5-7.5
	c0-4.143,3.357-7.5,7.5-7.5h32.254c4.143,0,7.5,3.357,7.5,7.5C357.546,459.827,354.189,463.185,350.046,463.185z"/>
<path style="fill:#FFFFFF;" d="M198.994,365.978l44.924,86.946c5.068,9.809,19.093,9.814,24.162,0.005
	c12.713-24.605,32.562-63.02,44.926-86.951c-17.573-7.24-36.821-11.242-57.006-11.242S216.567,358.738,198.994,365.978z"/>
<path style="opacity:0.1;enable-background:new    ;" d="M256,354.736c-33.589,0-64.59,11.065-89.572,29.739
	C193.2,399.268,223.679,407.66,256,407.66s62.8-8.392,89.572-23.185C320.59,365.801,289.589,354.736,256,354.736z"/>
<ellipse style="fill:#F5D7B7;" cx="256" cy="206.15" rx="173.64" ry="182.63"/>
<path style="opacity:0.05;enable-background:new    ;" d="M420.747,148.318c5.766,18.176,8.895,37.62,8.895,57.835
	c0,4.688-0.169,9.335-0.499,13.935c-21.68-2.878-61.131-19.947-69.834-71.548L420.747,148.318z"/>
<g>
	<ellipse style="fill:#F28B74;" cx="160.55" cy="257.46" rx="35.22" ry="28.05"/>
	<ellipse style="fill:#F28B74;" cx="351.45" cy="257.46" rx="35.22" ry="28.05"/>
</g>
<path style="fill:#495059;" d="M256,261.425L256,261.425c-14.092,0-25.516-11.424-25.516-25.516v-18.551
	c0-3.847,3.118-6.965,6.965-6.965h37.102c3.847,0,6.965,3.119,6.965,6.965v18.551C281.516,250.001,270.092,261.425,256,261.425z"/>
<path style="opacity:0.05;enable-background:new    ;" d="M314.944,377.983c-134.338-12.168-173.79-101.727-183.248-175.175
	c-0.597-4.637,0.643-9.36,3.525-13.042c8.083-10.329,14.533-23.803,17.471-41.226l-61.472-0.113
	c-5.744,18.145-8.861,37.551-8.861,57.726c0,100.864,77.742,182.63,173.642,182.63C276.694,388.783,296.539,384.969,314.944,377.983
	z"/>
<path style="fill:#495059;" d="M256,143.181c24.486,0,77.885-8.155,98.309-23.51c2.385,62.397,50.931,84.339,72.742,91.508
	c4.873,1.602,9.846-2.171,9.628-7.296C434.472,151.872,413.168,15.881,256,15.881S77.528,151.872,75.321,203.883
	c-0.217,5.125,4.756,8.898,9.628,7.296c21.811-7.169,70.357-29.111,72.742-91.508C178.115,135.025,231.514,143.181,256,143.181z"/>
<path style="fill:#7FDBD5;" d="M256,167.282c40.49,0,126.706-3.805,171.945-21.358C423.96,79.389,386.776,7.5,256,7.5
	S88.04,79.389,84.055,145.924C129.294,163.477,215.51,167.282,256,167.282z"/>
<path style="fill:#FFFFFF;" d="M272.068,69.671V45.769c0-2.194-1.778-3.972-3.972-3.972h-24.193c-2.194,0-3.972,1.778-3.972,3.972
	V69.67c0,1.741-1.411,3.152-3.152,3.152h-23.901c-2.193,0-3.972,1.778-3.972,3.972v24.192c0,2.194,1.778,3.972,3.972,3.972h23.901
	c1.741,0,3.152,1.411,3.152,3.152v23.901c0,2.193,1.778,3.972,3.972,3.972h24.193c2.194,0,3.972-1.778,3.972-3.972V108.11
	c0-1.741,1.411-3.152,3.152-3.152h23.901c2.193,0,3.972-1.778,3.972-3.972V76.795c0-2.194-1.778-3.972-3.972-3.972H275.22
	C273.479,72.823,272.068,71.411,272.068,69.671z"/>
<path style="opacity:0.1;enable-background:new    ;" d="M84.055,145.924c25.947,10.068,65.374,15.611,101.923,18.51
	c-35.935-31.139-30.752-106.463-10.456-145.002C108.934,42.588,87.059,95.773,84.055,145.924z"/>
<g style="opacity:0.1;">
	<path d="M366.654,129.206c0.52,0.03,1.123,0.046,1.795,0.046c7.916,0,25.428-2.055,31.026-4.387
		c3.71-1.545,5.463-5.805,3.919-9.516c-1.543-3.711-5.804-5.469-9.519-3.924c-3.133,1.303-20.476,3.609-26.363,3.246
		c-4.021-0.245-7.46,2.826-7.697,6.84C359.578,125.523,362.64,128.969,366.654,129.206z"/>
	<path d="M380.472,80.656c3.767,0,15.923-1.797,27.319-5.271c-2.589-4.358-5.469-8.596-8.655-12.689
		c-8.377,2.182-16.509,3.399-18.664,3.399c-4.021,0-7.28,3.259-7.28,7.28C373.191,77.397,376.451,80.656,380.472,80.656z"/>
	<path d="M137.001,114.66c-10.378-0.297-34.163-4.773-46.168-8.389c-1.39,4.667-2.555,9.383-3.509,14.123
		c14.279,4.208,38.47,8.513,49.262,8.821c0.071,0.002,0.141,0.003,0.211,0.003c3.924,0,7.161-3.124,7.274-7.073
		C144.185,118.126,141.02,114.775,137.001,114.66z"/>
	<path d="M141.789,69.913c0.183-4.017-2.925-7.422-6.942-7.604c-3.241-0.147-10.522-2.422-17.586-4.941
		c-3.398,3.884-6.489,7.921-9.292,12.084c8.816,3.323,20.098,7.124,26.216,7.402c0.113,0.005,0.225,0.008,0.337,0.008
		C138.39,76.863,141.611,73.817,141.789,69.913z"/>
</g>
<path d="M440.681,169.717c-1.285-7.853-3.009-16.271-5.301-24.973c-2.729-43.023-18.506-78.678-45.658-103.141
	c-3.08-2.773-7.819-2.523-10.593,0.552c-2.772,3.078-2.525,7.82,0.552,10.593c23.514,21.184,37.079,50.792,40.367,88.073
	c-15.9,5.453-35.765,9.338-56.149,12.107c-0.471,0.017-0.943,0.08-1.412,0.188c-48.036,6.398-98.511,6.665-106.487,6.665
	c-7.976,0-58.452-0.269-106.49-6.667c-0.467-0.108-0.937-0.171-1.406-0.187c-20.384-2.769-40.249-6.654-56.149-12.105
	C97.154,82.121,130.55,15,256,15c38.383,0,70.66,6.398,95.935,19.019c3.709,1.85,8.21,0.347,10.061-3.359s0.347-8.21-3.359-10.061
	C331.261,6.931,296.729,0,256,0c-61.462,0-108.174,15.636-138.838,46.473c-24.33,24.469-37.965,57.532-40.543,98.276
	c-2.291,8.7-4.014,17.117-5.299,24.968c-15.751,4.792-27.043,19.563-27.043,36.435c0,19.68,15.006,35.921,34.176,37.882
	c7.135,37.169,24.729,71.268,51.097,98.258c12.04,12.323,25.449,22.676,39.851,30.923c-39.943,26.329-65.822,69.263-70.054,117.318
	c-0.481,5.471,1.378,10.941,5.103,15.009c3.76,4.105,9.106,6.458,14.671,6.458h12.143c4.143,0,7.5-3.357,7.5-7.5s-3.357-7.5-7.5-7.5
	h-12.143c-1.873,0-3.065-0.996-3.608-1.59c-0.524-0.571-1.379-1.794-1.224-3.562c4.082-46.359,30.445-87.455,70.767-110.677
	c5.451,2.435,11.015,4.585,16.676,6.444l35.522,68.752c3.639,7.042,10.823,11.416,18.749,11.416
	c7.923-0.001,15.103-4.373,18.738-11.411l35.525-68.757c5.661-1.859,11.225-4.009,16.676-6.444
	c40.322,23.222,66.684,64.318,70.766,110.677c0.155,1.768-0.699,2.99-1.223,3.562c-0.544,0.594-1.735,1.59-3.609,1.59H166.884
	c-4.143,0-7.5,3.357-7.5,7.5s3.357,7.5,7.5,7.5h225.994c5.565,0,10.913-2.354,14.672-6.46c3.725-4.066,5.584-9.537,5.102-15.008
	c-4.231-48.055-30.111-90.99-70.053-117.317c14.402-8.247,27.811-18.6,39.851-30.923c26.368-26.989,43.962-61.088,51.097-98.258
	c19.17-1.961,34.176-18.202,34.176-37.881C467.723,189.28,456.431,174.51,440.681,169.717z M59.277,206.152
	c0-7.632,3.82-14.542,9.718-18.771c-0.612,6.091-0.971,11.561-1.167,16.184c-0.207,4.869,1.99,9.531,5.878,12.474
	c0.467,0.353,0.956,0.665,1.454,0.958c0.204,3.812,0.521,7.602,0.937,11.368C66.404,225.627,59.277,216.709,59.277,206.152z
	 M89.347,155.759c12.618,4.119,28.156,7.621,46.446,10.485c-14.207,21.181-36.072,32.153-52.969,37.739
	C83.331,192.271,84.903,174.998,89.347,155.759z M261.416,449.486c-1.537,2.976-4.298,3.297-5.413,3.297
	c-1.117,0-3.882-0.321-5.422-3.302l-29.284-56.677c11.323,2.299,22.932,3.479,34.703,3.479c11.77,0,23.379-1.18,34.703-3.479
	L261.416,449.486z M419.845,235.274c-0.003,0.014-0.004,0.029-0.007,0.043c-5.797,36.58-22.441,70.21-48.119,96.493
	c-13.979,14.308-29.959,25.722-47.248,33.972c-0.27,0.108-0.532,0.234-0.788,0.372c-6.577,3.095-13.337,5.742-20.252,7.905
	c-0.327,0.072-0.645,0.173-0.959,0.287c-14.926,4.565-30.54,6.937-46.473,6.937c-15.941,0-31.563-2.374-46.496-6.944
	c-0.289-0.104-0.582-0.195-0.881-0.264c-6.932-2.166-13.709-4.817-20.301-7.919c-0.259-0.14-0.524-0.268-0.797-0.377
	c-17.288-8.25-33.266-19.664-47.244-33.971c-25.679-26.283-42.323-59.913-48.119-96.494c-0.003-0.018-0.005-0.036-0.008-0.054
	c-0.935-5.914-1.586-11.904-1.946-17.953c20.404-7.177,46.218-21.313,61.794-48.786c6.11,0.769,12.457,1.482,19.08,2.128
	c38.263,3.729,72.133,4.132,84.919,4.132s46.656-0.402,84.919-4.132c6.623-0.646,12.97-1.359,19.08-2.128
	c15.575,27.472,41.39,41.607,61.794,48.786C421.432,223.362,420.781,229.356,419.845,235.274z M376.207,166.244
	c18.29-2.864,33.829-6.366,46.447-10.485c4.444,19.237,6.015,36.507,6.522,48.224C412.283,198.398,390.415,187.426,376.207,166.244z
	 M435.902,228.364c0.416-3.767,0.733-7.556,0.937-11.368c0.499-0.292,0.988-0.604,1.455-0.958c3.887-2.942,6.084-7.605,5.877-12.473
	c-0.196-4.622-0.554-10.093-1.166-16.184c5.898,4.229,9.717,11.14,9.717,18.772C452.723,216.71,445.596,225.628,435.902,228.364z
	 M345.561,201.725c-4.143,0-7.5,3.357-7.5,7.5v15.117c0,4.143,3.357,7.5,7.5,7.5s7.5-3.357,7.5-7.5v-15.117
	C353.061,205.082,349.704,201.725,345.561,201.725z M166.439,201.725c-4.143,0-7.5,3.357-7.5,7.5v15.117c0,4.143,3.357,7.5,7.5,7.5
	s7.5-3.357,7.5-7.5v-15.117C173.939,205.082,170.581,201.725,166.439,201.725z M274.551,202.893h-37.102
	c-7.977,0-14.466,6.489-14.466,14.465v18.551c0,18.205,14.812,33.017,33.017,33.017s33.017-14.812,33.017-33.017v-18.551
	C289.017,209.382,282.527,202.893,274.551,202.893z M274.017,235.908c0,9.935-8.082,18.017-18.017,18.017
	s-18.017-8.082-18.017-18.017v-18.016h36.033v18.016H274.017z"/>
<g>
</g>
<g>
</g>
<g>
</g>
<g>
</g>
<g>
</g>
<g>
</g>
<g>
</g>
<g>
</g>
<g>
</g>
<g>
</g>
<g>
</g>
<g>
</g>
<g>
</g>
<g>
</g>
<g>
</g>
</svg>
