<svg id="Layer_1" data-name="Layer 1" xmlns="http://www.w3.org/2000/svg" viewBox="0 0 144 144" width="32px" height="32px">
<defs><style>.cls-1{fill:red;}</style></defs>
<title>reactedhearticon</title>
<path class="cls-1" d="M141.51,67.73h-9.8c6.19-21.65-2.19-42.21-21.06-50.71C92.27,8.74,77.34,23.66,72,30.09,66.67,23.65,51.73,8.74,33.35,17,16.75,24.49,7.88,41.66,10.75,60.75a2.53,2.53,0,1,0,5-.75c-2.56-17,5-31.75,19.68-38.37C54.49,13,69.28,34.72,69.9,35.64L72,38.79l2.11-3.15c0.62-.93,15.41-22.61,34.47-14,17.15,7.72,24.21,26.13,17.86,46.1h-40l-7,17.95-19-47.22L48.78,67.73H2.49a2.53,2.53,0,0,0,0,5.06H14A70.81,70.81,0,0,0,20.19,85c17.86,28.25,49.2,46.93,50.53,47.71L72,133.42l1.28-.76c1.33-.78,32.67-19.46,50.53-47.71,0.66-1,1.31-2.13,1.92-3.2a2.53,2.53,0,1,0-4.4-2.49c-0.57,1-1.17,2-1.79,3-15.21,24-41.45,41.43-47.54,45.26-6.09-3.83-32.34-21.21-47.54-45.26a67.1,67.1,0,0,1-5-9.47H52.21l8.26-20.72,19,47.34L89.9,72.78h51.61A2.53,2.53,0,0,0,141.51,67.73Z"/>
</svg>